<?xml version="1.0" encoding="utf-8"?>
<svg xmlns="http://www.w3.org/2000/svg" height="512pt" version="1.1" viewBox="0 0 512 512" width="512pt">
  <path
    d="M 250.86 58.62 C 256.36 55.14 263.41 55.01 269.52 56.78 C 276.67 59.00 281.79 65.17 284.89 71.74 C 286.07 76.32 286.15 81.12 285.45 85.78 C 283.46 92.56 278.91 98.11 273.31 102.28 C 273.03 102.53 272.47 103.04 272.19 103.30 C 272.02 109.51 272.22 115.73 272.02 121.94 C 288.12 121.96 304.22 121.94 320.32 121.89 C 326.41 121.77 332.50 121.70 338.58 121.88 C 350.39 122.37 361.72 127.33 371.06 134.39 C 372.54 135.54 373.99 136.73 375.39 137.98 C 377.61 140.08 379.73 142.28 381.77 144.54 C 388.58 152.61 393.10 162.37 395.63 172.58 C 396.16 174.95 396.63 177.34 397.12 179.72 C 397.68 184.60 397.47 189.52 397.48 194.42 C 404.43 194.45 411.39 194.14 418.33 194.59 C 418.57 194.66 419.06 194.82 419.30 194.90 C 424.39 196.79 427.17 202.27 426.74 207.52 C 426.73 212.33 426.57 217.15 426.56 221.96 C 426.43 234.60 426.75 247.23 426.54 259.87 C 426.61 263.60 424.57 266.88 422.22 269.61 C 416.48 273.60 409.21 272.25 402.66 272.71 C 401.01 272.74 399.36 272.75 397.72 272.77 C 397.67 278.98 397.42 285.21 396.18 291.31 C 395.13 297.13 392.86 302.62 390.49 308.00 C 389.15 310.84 387.64 313.59 385.87 316.19 C 383.92 318.94 381.81 321.58 379.61 324.15 C 376.94 327.07 374.08 329.84 370.96 332.27 C 368.57 334.07 366.10 335.78 363.50 337.24 C 360.51 338.77 357.38 339.98 354.27 341.23 C 348.36 343.51 342.05 344.45 335.81 345.34 C 325.23 345.46 314.64 345.54 304.06 345.47 C 299.08 345.51 294.10 345.43 289.13 345.49 C 278.15 345.70 267.18 345.36 256.21 345.44 C 251.06 345.45 245.91 345.45 240.76 345.45 C 235.18 345.45 229.60 345.46 224.02 345.44 C 218.98 345.42 213.94 345.48 208.89 345.48 C 200.34 345.34 191.78 345.65 183.24 345.18 C 180.96 344.58 178.66 344.09 176.40 343.45 C 164.64 340.27 153.61 334.33 144.74 325.96 C 144.15 325.38 143.57 324.80 142.99 324.23 C 133.57 315.03 127.20 302.95 123.65 290.36 C 122.34 284.43 121.88 278.36 121.73 272.31 C 115.48 272.28 109.16 272.88 102.97 271.88 C 99.20 271.31 96.20 268.64 94.13 265.58 C 93.64 264.11 93.25 262.61 92.87 261.13 C 92.56 254.13 92.77 247.12 92.78 240.12 C 92.86 234.71 92.78 229.30 92.77 223.90 C 92.85 217.21 92.35 210.51 93.03 203.85 C 93.45 202.68 93.87 201.51 94.29 200.35 C 96.08 198.16 98.17 196.21 100.61 194.76 C 107.78 193.97 115.00 194.69 122.19 194.49 C 122.23 190.86 122.16 187.23 122.28 183.60 C 122.82 179.86 123.54 176.14 124.55 172.49 C 125.52 169.09 126.72 165.76 127.85 162.41 C 129.07 159.52 130.54 156.73 132.22 154.08 C 135.51 149.19 139.09 144.44 143.37 140.36 C 148.50 135.36 154.70 131.64 160.96 128.24 C 169.36 124.15 178.66 121.62 188.05 122.05 C 210.70 122.21 233.35 122.04 255.99 121.90 C 255.87 116.08 256.05 110.26 255.85 104.44 L 255.13 104.07 C 249.28 101.98 244.93 97.38 241.45 92.40 C 240.19 90.29 239.24 88.01 238.45 85.69 C 238.21 80.49 238.10 75.07 240.41 70.28 C 240.83 69.45 241.24 68.62 241.72 67.82 C 244.15 64.22 247.13 60.90 250.86 58.62 Z"
    fill="#00F07C" />
  <path
    d="M 178.50 175.52 C 186.07 169.11 196.03 165.14 206.03 165.89 C 213.08 166.66 220.12 169.11 225.69 173.56 C 232.48 179.16 237.20 187.03 239.10 195.62 C 242.31 212.06 233.17 230.01 218.13 237.29 C 215.21 238.37 212.26 239.43 209.17 239.89 C 197.92 241.79 186.30 237.53 178.09 229.83 C 176.03 227.66 174.15 225.31 172.37 222.91 C 169.23 218.48 167.49 213.24 166.52 207.93 C 165.95 201.95 166.60 195.84 168.72 190.20 C 168.85 189.93 169.12 189.40 169.25 189.14 C 171.68 184.21 174.56 179.39 178.50 175.52 Z"
    fill="black" />
  <path
    d="M 293.77 175.39 C 301.59 168.71 312.17 165.18 322.45 166.68 C 335.67 168.37 346.55 178.19 351.59 190.23 C 355.61 201.07 354.22 213.67 348.18 223.51 C 345.84 227.14 342.78 230.26 339.39 232.93 C 335.37 235.79 330.83 237.89 326.09 239.24 C 321.29 239.99 316.41 240.10 311.56 239.83 C 310.04 239.53 308.53 239.20 307.04 238.80 C 299.30 236.13 292.46 230.88 287.91 224.07 C 284.67 219.33 282.98 213.79 281.71 208.24 C 281.53 202.10 281.70 195.77 283.97 189.98 C 286.14 185.31 288.53 180.62 292.17 176.91 C 292.69 176.39 293.22 175.89 293.77 175.39 Z"
    fill="black" />
  <path
    d="M 215.35 252.38 C 219.30 248.09 226.62 248.59 230.32 253.00 C 232.35 256.46 234.12 260.20 237.01 263.04 C 242.48 268.05 249.63 270.89 256.86 272.15 C 265.92 272.90 275.31 270.19 281.85 263.71 C 285.33 260.45 287.51 256.14 290.60 252.56 C 292.86 250.01 296.63 249.83 299.77 250.35 C 303.39 251.23 305.82 254.44 307.37 257.63 C 308.03 263.05 305.04 267.86 301.59 271.73 C 297.62 276.24 293.57 280.78 288.51 284.10 C 282.81 287.42 276.77 290.41 270.18 291.40 C 268.34 291.71 266.51 292.03 264.69 292.42 C 258.08 292.92 251.44 292.12 245.05 290.39 C 238.09 287.37 231.09 284.14 225.15 279.32 C 223.31 277.60 221.58 275.75 219.87 273.90 C 216.58 270.43 214.08 266.29 212.41 261.82 C 212.47 258.49 212.67 254.75 215.35 252.38 Z"
    fill="black" />
</svg>